<?xml version="1.0" encoding="utf-8"?>
<!-- Generator: Adobe Illustrator 22.0.0, SVG Export Plug-In . SVG Version: 6.00 Build 0)  -->
<svg version="1.1" id="Layer_1" xmlns="http://www.w3.org/2000/svg" xmlns:xlink="http://www.w3.org/1999/xlink" x="0px" y="0px"
	 viewBox="0 0 257.2 47.2" style="enable-background:new 0 0 257.2 47.2;" xml:space="preserve">
<style type="text/css">
	.st0{fill:#FFFFFF;}
</style>
<path class="st0" d="M256.3,40.8l-0.3,0.2l-0.2,0.3v0.4l0.2,0.3l0.3,0.2h0.4L257,42l0.2-0.3v-0.4L257,41l-0.3-0.2H256.3z M11.2,32
	l-2,7.5l-2-7.5H5.7l-2,7.5l-2-7.5H0.2l2.7,10.1h1.5l2-7.4l2,7.4h1.5L12.7,32H11.2z M78.5,32v6.5l-0.8,1.5l-1.4,0.8h-1.6l-1.4-0.8
	l-0.8-1.5V32h-1.4v6.9l1.2,2.1l2,1.3h2.4l1.8-1.1v1h1.4V32H78.5z M142.7,32l-1.6,3.4l-1.6-3.4H138l2.4,5.1l-2.4,5.1h1.6l1.6-3.4
	l1.6,3.4h1.6l-2.4-5.1l2.4-5.1H142.7z M156.2,42.2h1.4V32h-1.4V42.2z M166.3,42.2h1.4V32h-1.4V42.2z M232.5,32l-2,7.5l-2-7.5H227
	l2.8,10.4v4.7h1.4v-4.7l2.8-10.4H232.5z M251.9,32v6.5l-0.8,1.5l-1.4,0.8h-1.6l-1.4-0.8l-0.8-1.5V32h-1.4v6.9l1.2,2.1l2,1.3h2.4
	l1.8-1.1v1h1.4V32H251.9z M16,40.1l-0.8-1.5v-2.9l0.8-1.5l1.4-0.8h1.6l1.4,0.8l0.8,1.5v2.9l-0.8,1.5l-1.4,0.8h-1.6L16,40.1z
	 M16.9,31.9l-2,1.3l-1.2,2.1v3.6l1.2,2.1l2,1.3h2.4l2-1.3l1.2-2.1v-3.6l-1.2-2.1l-2-1.3H16.9z M27.6,31.9L25.8,33v-1h-1.4v10.1h1.4
	v-6.5l0.8-1.5l1.4-0.8h1.6l1.4,0.8l0.8,1.5v6.5h1.4v-6.9l-1.2-2.1l-2-1.3H27.6z M47,35.7l0.8-1.5l1.4-0.8h1.6l1.4,0.8l0.8,1.5v0.9
	H47V35.7z M48.8,31.9l-2,1.3l-1.2,2.1v3.6l1.2,2.1l2,1.3h2.4l2-1.3l0.9-1.7h-1.6l-0.4,0.7l-1.4,0.8h-1.6l-1.4-0.8L47,38.5v-0.6h7.3
	v-2.6l-1.2-2.1l-2-1.3H48.8z M59.9,31.9l-2.2,1.3V32h-1.4v10.1h1.4v-6.1l1-1.8l1.6-1h1.9v-1.4H59.9z M93,40.1l-0.8-1.5v-2.9l0.8-1.5
	l1.4-0.8h1.6l1.4,0.8l0.8,1.5v2.9l-0.8,1.5l-1.4,0.8h-1.6L93,40.1z M93.9,31.9l-2,1.3l-1.2,2.1v3.6l1.2,2.1l2,1.3h2.4l1.8-1.1v1h1.4
	V32H98v1l-1.8-1.1H93.9z M105,31.9l-1.8,1.1v-1h-1.4v10.1h1.4v-6.5l0.8-1.5l1.4-0.8h1.6l1.4,0.8l0.8,1.5v6.5h1.4v-6.9l-1.2-2.1
	l-2-1.3H105z M129.5,35.7l0.8-1.5l1.4-0.8h1.6l1.4,0.8l0.8,1.5v0.9h-5.9V35.7z M131.3,31.9l-2,1.3l-1.2,2.1v3.6l1.2,2.1l2,1.3h2.4
	l2-1.3l0.9-1.7H135l-0.4,0.7l-1.4,0.8h-1.6l-1.4-0.8l-0.8-1.5v-0.6h7.3v-2.6l-1.2-2.1l-2-1.3H131.3z M149.1,31.9l-2,1.3l-1.2,2.1
	v3.6L147,41l2,1.3h2.4l2-1.3l1.2-2.1v-0.8h-1.4v0.5l-0.8,1.5l-1.4,0.8h-1.6l-1.4-0.8l-0.8-1.5v-2.9l0.8-1.5l1.4-0.8h1.6l1.4,0.8
	l0.8,1.5v0.5h1.4v-0.8l-1.2-2.1l-2-1.3H149.1z M173.3,31.9l-1.8,1.1v-1h-1.4v10.1h1.4v-6.5l0.8-1.5l1.4-0.8h1.6l1.4,0.8l0.8,1.5v6.5
	h1.4v-6.9l-1.2-2.1l-2-1.3H173.3z M182.9,39.5l-0.8-1.5v-2.3l0.8-1.5l1.4-0.8h1.6l1.4,0.8l0.8,1.5V38l-0.8,1.5l-1.4,0.9h-1.6
	L182.9,39.5z M183.8,31.9l-2,1.3l-1.2,2.1v3l1.2,2.1l2,1.3h2.4l1.8-1.1v2.8l-0.8,1.5l-1.4,0.8h-1.6l-1.4-0.8l-0.8-1.5v-1.2h-1.4v1.5
	l1.2,2.1l2,1.3h2.4l2-1.3l1.2-2.1V32H188v1l-1.8-1.1H183.8z M205.9,40.1l-0.8-1.5v-2.9l0.8-1.5l1.4-0.8h1.6l1.4,0.8l0.8,1.5v2.9
	l-0.8,1.5l-1.4,0.8h-1.6L205.9,40.1z M206.9,31.9l-2,1.3l-1.2,2.1v3.6l1.2,2.1l2,1.3h2.4l2-1.3l1.2-2.1v-3.6l-1.2-2.1l-2-1.3H206.9z
	 M217.9,31.9l-2.2,1.3V32h-1.4v10.1h1.4v-6.1l1-1.8l1.6-1h1.9v-1.4H217.9z M236.4,40.1l-0.8-1.5v-2.9l0.8-1.5l1.4-0.8h1.6l1.4,0.8
	l0.8,1.5v2.9l-0.8,1.5l-1.4,0.8h-1.6L236.4,40.1z M237.4,31.9l-2,1.3l-1.2,2.1v3.6l1.2,2.1l2,1.3h2.4l2-1.3l1.2-2.1v-3.6l-1.2-2.1
	l-2-1.3H237.4z M37.1,40.1l-0.8-1.5v-2.9l0.8-1.5l1.4-0.8H40l1.4,0.8l0.8,1.5v2.9l-0.8,1.5L40,40.9h-1.6L37.1,40.1z M42.2,26.1V33
	l-1.8-1.1h-2.4l-2,1.3l-1.2,2.1v3.6l1.2,2.1l2,1.3h2.4l1.8-1.1v1h1.4v-16H42.2z M82.3,42.2h1.4v-16h-1.4V42.2z M114.6,40.1l-0.8-1.5
	v-2.9l0.8-1.5l1.4-0.8h1.6l1.4,0.8l0.8,1.5v2.9l-0.8,1.5l-1.4,0.8H116L114.6,40.1z M119.7,26.1V33l-1.8-1.1h-2.4l-2,1.3l-1.2,2.1
	v3.6l1.2,2.1l2,1.3h2.4l1.8-1.1v1h1.4v-16H119.7z M161.3,26.1v5.8h-1.8v1.3h1.8v8.9h1.4v-8.9h1.8v-1.3h-1.8v-5.8H161.3z M69,26
	l-2,1.3l-1.2,2.1v2.5H64v1.3h1.8v8.9h1.4v-8.9h3v-1.3h-3v-2.1l0.8-1.5l1.4-0.8h0.8V26H69z M156.7,26l-0.3,0.2l-0.2,0.3v0.4l0.2,0.3
	l0.3,0.2h0.4l0.3-0.2l0.2-0.3v-0.4l-0.2-0.3l-0.3-0.2H156.7z M166.8,26l-0.3,0.2l-0.2,0.3v0.4l0.2,0.3l0.3,0.2h0.4l0.3-0.2l0.2-0.3
	v-0.4l-0.2-0.3l-0.3-0.2H166.8z M201.8,26l-2,1.3l-1.2,2.1v2.5h-1.8v1.3h1.8v8.9h1.4v-8.9h3v-1.3h-3v-2.1l0.8-1.5l1.4-0.8h0.8V26
	H201.8z"/>
<path class="st0" d="M125.8,16.2h1.4V6h-1.4V16.2z M221,16.2h1.4V6H221V16.2z M20,9.7l0.8-1.5l1.4-0.8h1.6l1.4,0.8l0.8,1.5v0.9H20
	V9.7z M21.8,5.9l-2,1.3l-1.2,2.1v3.6l1.2,2.1l2,1.3h2.4l2-1.3l0.9-1.7h-1.6l-0.4,0.7l-1.4,0.8h-1.6l-1.4-0.8L20,12.5v-0.6h7.3V9.3
	l-1.2-2.1l-2-1.3H21.8z M36.1,14.1l-0.8-1.5V9.7l0.8-1.5l1.4-0.8h1.6l1.4,0.8l0.8,1.5v2.9l-0.8,1.5l-1.4,0.8h-1.6L36.1,14.1z
	 M37.1,5.9l-2,1.3l-1.2,2.1v3.6l1.2,2.1l2,1.3h2.4l1.8-1.1v1h1.4V6h-1.4v1l-1.8-1.1H37.1z M48.6,5.9l-2.2,1.3V6H45v10.1h1.4v-6.1
	l1-1.8l1.6-1h1.9V5.9H48.6z M53.7,9.7l0.8-1.5l1.4-0.8h1.6l1.4,0.8l0.8,1.5v0.9h-5.9V9.7z M55.5,5.9l-2,1.3l-1.2,2.1v3.6l1.2,2.1
	l2,1.3h2.4l2-1.3l0.9-1.7h-1.6l-0.4,0.7l-1.4,0.8h-1.6l-1.4-0.8l-0.8-1.5v-0.6H61V9.3l-1.2-2.1l-2-1.3H55.5z M70.2,14.1l-0.8-1.5
	V9.7l0.8-1.5l1.4-0.8h1.6l1.4,0.8l0.8,1.5v2.9l-0.8,1.5l-1.4,0.8h-1.6L70.2,14.1z M71.2,5.9L69.4,7V6H68v15h1.4v-5.9l1.8,1.1h2.4
	l2-1.3l1.2-2.1V9.3l-1.2-2.1l-2-1.3H71.2z M82.3,5.9l-2.2,1.3V6h-1.4v10.1h1.4v-6.1l1-1.8l1.6-1h1.9V5.9H82.3z M87.4,9.7l0.8-1.5
	l1.4-0.8h1.6l1.4,0.8l0.8,1.5v0.9h-5.9V9.7z M89.2,5.9l-2,1.3L86,9.3v3.6l1.2,2.1l2,1.3h2.4l2-1.3l0.9-1.7h-1.6l-0.4,0.7l-1.4,0.8
	h-1.6l-1.4-0.8l-0.8-1.5v-0.6h7.3V9.3l-1.2-2.1l-2-1.3H89.2z M98.9,14.1l-0.8-1.5V9.7l0.8-1.5l1.4-0.8h1.6l1.4,0.8l0.8,1.5v2.9
	l-0.8,1.5l-1.4,0.8h-1.6L98.9,14.1z M99.9,5.9L98.1,7V6h-1.4v15h1.4v-5.9l1.8,1.1h2.4l2-1.3l1.2-2.1V9.3l-1.2-2.1l-2-1.3H99.9z
	 M109.3,14.1l-0.8-1.5V9.7l0.8-1.5l1.4-0.8h1.6l1.4,0.8l0.8,1.5v2.9l-0.8,1.5l-1.4,0.8h-1.6L109.3,14.1z M110.2,5.9l-2,1.3L107,9.3
	v3.6l1.2,2.1l2,1.3h2.4l1.8-1.1v1h1.4V6h-1.4v1l-1.8-1.1H110.2z M121.8,5.9l-2.2,1.3V6h-1.4v10.1h1.4v-6.1l1-1.8l1.6-1h1.9V5.9
	H121.8z M132.8,5.9L131,7V6h-1.4v10.1h1.4V9.7l0.8-1.5l1.4-0.8h1.6l1.4,0.8l0.8,1.5v6.5h1.4V9.3l-1.2-2.1l-2-1.3H132.8z M142.4,13.5
	l-0.8-1.5V9.7l0.8-1.5l1.4-0.8h1.6l1.4,0.8l0.8,1.5V12l-0.8,1.5l-1.4,0.8h-1.6L142.4,13.5z M143.3,5.9l-2,1.3l-1.2,2.1v3l1.2,2.1
	l2,1.3h2.4l1.8-1.1v2.8l-0.8,1.5l-1.4,0.8h-1.6l-1.4-0.8l-0.8-1.5v-1.2h-1.4v1.5l1.2,2.1l2,1.3h2.4l2-1.3l1.2-2.1V6h-1.4v1l-1.8-1.1
	H143.3z M158.2,5.9l-1.4,0.8l-0.8,1.4v1.6l0.8,1.4l1.4,0.8h1.9l0.7,0.4l0.4,0.7v0.8l-0.4,0.7l-0.7,0.4h-1.5l-0.7-0.4l-0.4-0.7v-0.6
	h-1.4v0.9l0.8,1.4l1.4,0.8h2.3l1.4-0.8l0.8-1.4v-1.6l-0.8-1.4l-1.4-0.8h-1.9l-0.7-0.4l-0.4-0.7V8.4l0.4-0.7l0.7-0.4l1.5,0l0.7,0.4
	l0.4,0.7V9h1.4V8.1l-0.8-1.4l-1.4-0.8H158.2z M166.6,14.1l-0.8-1.5V9.7l0.8-1.5l1.4-0.8h1.6l1.4,0.8l0.8,1.5v2.9l-0.8,1.5l-1.4,0.8
	H168L166.6,14.1z M167.6,5.9l-2,1.3l-1.2,2.1v3.6l1.2,2.1l2,1.3h2.4l2-1.3l1.2-2.1V9.3L172,7.2l-2-1.3H167.6z M185.5,5.9l-2,1.3
	L183,8l-0.4-0.8l-2-1.3h-2.4L176.4,7V6H175v10.1h1.4V9.7l0.8-1.5l1.4-0.8h1.6l1.4,0.8l0.8,1.5v6.5h1.4V9.7l0.8-1.5l1.4-0.8h1.6
	l1.4,0.8l0.8,1.5v6.5h1.4V9.3l-1.2-2.1l-2-1.3H185.5z M194.3,9.7l0.8-1.5l1.4-0.8h1.6l1.4,0.8l0.8,1.5v0.9h-5.9V9.7z M196,5.9
	l-2,1.3l-1.2,2.1v3.6L194,15l2,1.3h2.4l2-1.3l0.9-1.7h-1.6l-0.4,0.7l-1.4,0.8h-1.6l-1.4-0.8l-0.8-1.5v-0.6h7.3V9.3l-1.2-2.1l-2-1.3
	H196z M228,5.9L226.2,7V6h-1.4v10.1h1.4V9.7l0.8-1.5l1.4-0.8h1.6l1.4,0.8l0.8,1.5v6.5h1.4V9.3l-1.2-2.1l-2-1.3H228z M237.5,13.5
	l-0.8-1.5V9.7l0.8-1.5l1.4-0.8h1.6l1.4,0.8l0.8,1.5V12l-0.8,1.5l-1.4,0.8h-1.6L237.5,13.5z M238.5,5.9l-2,1.3l-1.2,2.1v3l1.2,2.1
	l2,1.3h2.4l1.8-1.1v2.8l-0.8,1.5l-1.4,0.8h-1.6l-1.4-0.8l-0.8-1.5v-1.2h-1.4v1.5l1.2,2.1l2,1.3h2.4l2-1.3l1.2-2.1V6h-1.4v1l-1.8-1.1
	H238.5z M17.3,0.1l-3.6,13.5L10.1,0.1H8.7L5.1,13.6L1.5,0.1H0l4.3,16h1.5L9.4,2.9L13,16.2h1.5l4.3-16H17.3z M204.8,0.1v5.8H203v1.3
	h1.8v8.9h1.4V7.2h1.8V5.9h-1.8V0.1H204.8z M209.9,0.1v16h1.4V9.7l0.8-1.5l1.4-0.8h1.6l1.4,0.8l0.8,1.5v6.5h1.4V9.3l-1.2-2.1l-2-1.3
	H213L211.3,7V0.1H209.9z M126.3,0L126,0.2l-0.2,0.3v0.4l0.2,0.3l0.3,0.2h0.4l0.3-0.2l0.2-0.3V0.5L127,0.2L126.7,0H126.3z M221.5,0
	l-0.3,0.2L221,0.5v0.4l0.2,0.3l0.3,0.2h0.4l0.3-0.2l0.2-0.3V0.5l-0.2-0.3L221.9,0H221.5z"/>
</svg>
