<?xml version="1.0" encoding="utf-8"?>
<!-- Generator: Adobe Illustrator 19.0.0, SVG Export Plug-In . SVG Version: 6.00 Build 0)  -->
<svg version="1.1" id="Layer_1" xmlns="http://www.w3.org/2000/svg" xmlns:xlink="http://www.w3.org/1999/xlink" x="0px" y="0px"
	 width="257.2px" height="47.2px" viewBox="-176 373.8 257.2 47.2" style="enable-background:new -176 373.8 257.2 47.2;"
	 xml:space="preserve">
<style type="text/css">
	.st0{fill:#FFFFFF;}
</style>
<g>
	<path class="st0" d="M80.2,414.6l-0.3,0.2l-0.2,0.3v0.4l0.2,0.3l0.3,0.2h0.4l0.3-0.2l0.2-0.3v-0.4l-0.2-0.3l-0.3-0.2H80.2z
		 M-164.9,405.8l-2,7.5l-2-7.5h-1.5l-2,7.5l-2-7.5h-1.5l2.7,10.1h1.5l2-7.4l2,7.4h1.5l2.8-10.1H-164.9z M-97.6,405.8v6.5l-0.8,1.5
		l-1.4,0.8h-1.6l-1.4-0.8l-0.8-1.5v-6.5h-1.4v6.9l1.2,2.1l2,1.3h2.4l1.8-1.1v1h1.4v-10.2H-97.6z M-33.4,405.8l-1.6,3.4l-1.6-3.4
		h-1.5l2.4,5.1l-2.4,5.1h1.6l1.6-3.4l1.6,3.4h1.6l-2.4-5.1l2.4-5.1C-31.7,405.8-33.4,405.8-33.4,405.8z M-19.9,416h1.4v-10.2h-1.4
		V416z M-9.8,416h1.4v-10.2h-1.4V416z M56.4,405.8l-2,7.5l-2-7.5h-1.5l2.8,10.4v4.7h1.4v-4.7l2.8-10.4H56.4z M75.8,405.8v6.5
		l-0.8,1.5l-1.4,0.8H72l-1.4-0.8l-0.8-1.5v-6.5h-1.4v6.9l1.2,2.1l2,1.3H74l1.8-1.1v1h1.4v-10.2H75.8z M-160.1,413.9l-0.8-1.5v-2.9
		l0.8-1.5l1.4-0.8h1.6l1.4,0.8l0.8,1.5v2.9l-0.8,1.5l-1.4,0.8h-1.6L-160.1,413.9z M-159.2,405.7l-2,1.3l-1.2,2.1v3.6l1.2,2.1l2,1.3
		h2.4l2-1.3l1.2-2.1v-3.6l-1.2-2.1l-2-1.3C-156.8,405.7-159.2,405.7-159.2,405.7z M-148.5,405.7l-1.8,1.1v-1h-1.4v10.1h1.4v-6.5
		l0.8-1.5l1.4-0.8h1.6l1.4,0.8l0.8,1.5v6.5h1.4V409l-1.2-2.1l-2-1.3h-2.4V405.7z M-129.1,409.5l0.8-1.5l1.4-0.8h1.6l1.4,0.8l0.8,1.5
		v0.9h-6V409.5z M-127.3,405.7l-2,1.3l-1.2,2.1v3.6l1.2,2.1l2,1.3h2.4l2-1.3l0.9-1.7h-1.6l-0.4,0.7l-1.4,0.8h-1.6l-1.4-0.8l-0.7-1.5
		v-0.6h7.3v-2.6l-1.2-2.1l-2-1.3C-125,405.7-127.3,405.7-127.3,405.7z M-116.2,405.7l-2.2,1.3v-1.2h-1.4v10.1h1.4v-6.1l1-1.8l1.6-1
		h1.9v-1.4h-2.3V405.7z M-83.1,413.9l-0.8-1.5v-2.9l0.8-1.5l1.4-0.8h1.6l1.4,0.8l0.8,1.5v2.9l-0.8,1.5l-1.4,0.8h-1.6L-83.1,413.9z
		 M-82.2,405.7l-2,1.3l-1.2,2.1v3.6l1.2,2.1l2,1.3h2.4l1.8-1.1v1h1.4v-10.2h-1.5v1l-1.8-1.1H-82.2z M-71.1,405.7l-1.8,1.1v-1h-1.4
		v10.1h1.4v-6.5l0.8-1.5l1.4-0.8h1.6l1.4,0.8l0.8,1.5v6.5h1.4V409l-1.2-2.1l-2-1.3h-2.4V405.7z M-46.6,409.5l0.8-1.5l1.4-0.8h1.6
		l1.4,0.8l0.8,1.5v0.9h-5.9v-0.9H-46.6z M-44.8,405.7l-2,1.3l-1.2,2.1v3.6l1.2,2.1l2,1.3h2.4l2-1.3l0.9-1.7h-1.6l-0.4,0.7l-1.4,0.8
		h-1.6l-1.4-0.8l-0.8-1.5v-0.6h7.3v-2.6l-1.2-2.1l-2-1.3C-42.6,405.7-44.8,405.7-44.8,405.7z M-27,405.7l-2,1.3l-1.2,2.1v3.6
		l1.1,2.1l2,1.3h2.4l2-1.3l1.2-2.1v-0.8h-1.4v0.5l-0.8,1.5l-1.4,0.8h-1.6l-1.4-0.8l-0.8-1.5v-2.9l0.8-1.5l1.4-0.8h1.6l1.4,0.8
		l0.8,1.5v0.5h1.4v-0.8l-1.2-2.1l-2-1.3H-27V405.7z M-2.8,405.7l-1.8,1.1v-1H-6v10.1h1.4v-6.5l0.8-1.5l1.4-0.8h1.6l1.4,0.8l0.8,1.5
		v6.5h1.4V409l-1.2-2.1l-2-1.3h-2.4V405.7z M6.8,413.3L6,411.8v-2.3l0.8-1.5l1.4-0.8h1.6l1.4,0.8l0.8,1.5v2.3l-0.8,1.5l-1.4,0.9H8.2
		L6.8,413.3z M7.7,405.7l-2,1.3l-1.2,2.1v3l1.2,2.1l2,1.3h2.4l1.8-1.1v2.8l-0.8,1.5l-1.4,0.8H8.1l-1.4-0.8l-0.8-1.5V416H4.5v1.5
		l1.2,2.1l2,1.3h2.4l2-1.3l1.2-2.1v-11.7h-1.4v1l-1.8-1.1H7.7z M29.8,413.9l-0.8-1.5v-2.9l0.8-1.5l1.4-0.8h1.6l1.4,0.8l0.8,1.5v2.9
		l-0.8,1.5l-1.4,0.8h-1.6L29.8,413.9z M30.8,405.7l-2,1.3l-1.2,2.1v3.6l1.2,2.1l2,1.3h2.4l2-1.3l1.2-2.1v-3.6l-1.2-2.1l-2-1.3
		C33.2,405.7,30.8,405.7,30.8,405.7z M41.8,405.7l-2.2,1.3v-1.2h-1.4v10.1h1.4v-6.1l1-1.8l1.6-1h1.9v-1.4h-2.3V405.7z M60.3,413.9
		l-0.8-1.5v-2.9l0.8-1.5l1.4-0.8h1.6l1.4,0.8l0.8,1.5v2.9l-0.8,1.5l-1.4,0.8h-1.6L60.3,413.9z M61.3,405.7l-2,1.3l-1.2,2.1v3.6
		l1.2,2.1l2,1.3h2.4l2-1.3l1.2-2.1v-3.6l-1.2-2.1l-2-1.3C63.7,405.7,61.3,405.7,61.3,405.7z M-139,413.9l-0.8-1.5v-2.9l0.8-1.5
		l1.4-0.8h1.5l1.4,0.8l0.8,1.5v2.9l-0.8,1.5l-1.4,0.8h-1.6L-139,413.9z M-133.9,399.9v6.9l-1.8-1.1h-2.4l-2,1.3l-1.2,2.1v3.6
		l1.2,2.1l2,1.3h2.4l1.8-1.1v1h1.4v-16h-1.4V399.9z M-93.8,416h1.4v-16h-1.4V416z M-61.5,413.9l-0.8-1.5v-2.9l0.8-1.5l1.4-0.8h1.6
		l1.4,0.8l0.8,1.5v2.9l-0.8,1.5l-1.4,0.8h-1.6L-61.5,413.9z M-56.4,399.9v6.9l-1.8-1.1h-2.4l-2,1.3l-1.2,2.1v3.6l1.2,2.1l2,1.3h2.4
		l1.8-1.1v1h1.4v-16h-1.4V399.9z M-14.8,399.9v5.8h-1.8v1.3h1.8v8.9h1.4V407h1.8v-1.3h-1.8v-5.8C-13.4,399.9-14.8,399.9-14.8,399.9z
		 M-107.1,399.8l-2,1.3l-1.2,2.1v2.5h-1.8v1.3h1.8v8.9h1.4V407h3v-1.3h-3v-2.1l0.8-1.5l1.4-0.8h0.8v-1.5H-107.1z M-19.4,399.8
		l-0.3,0.2l-0.2,0.3v0.4l0.2,0.3l0.3,0.2h0.4l0.3-0.2l0.2-0.3v-0.4l-0.2-0.3l-0.3-0.2H-19.4z M-9.3,399.8l-0.3,0.2l-0.2,0.3v0.4
		l0.2,0.3l0.3,0.2h0.4l0.3-0.2l0.2-0.3v-0.4l-0.2-0.3l-0.3-0.2H-9.3z M25.7,399.8l-2,1.3l-1.2,2.1v2.5h-1.8v1.3h1.8v8.9h1.4V407h3
		v-1.3h-3v-2.1l0.8-1.5l1.4-0.8h0.8v-1.5H25.7z"/>
</g>
<g>
	<path class="st0" d="M-43.6,390h1.4v-10.2h-1.4V390z M51.6,390H53v-10.2h-1.4V390z M-149.4,383.5l0.8-1.5l1.4-0.8h1.6l1.4,0.8
		l0.8,1.5v0.9h-6V383.5z M-147.6,379.7l-2,1.3l-1.2,2.1v3.6l1.2,2.1l2,1.3h2.4l2-1.3l0.9-1.7h-1.6l-0.4,0.7l-1.4,0.8h-1.6l-1.4-0.8
		l-0.7-1.5v-0.6h7.3v-2.6l-1.2-2.1l-2-1.3C-145.3,379.7-147.6,379.7-147.6,379.7z M-133.3,387.9l-0.8-1.5v-2.9l0.8-1.5l1.4-0.8h1.6
		l1.4,0.8l0.8,1.5v2.9l-0.8,1.5l-1.4,0.8h-1.6L-133.3,387.9z M-132.3,379.7l-2,1.3l-1.2,2.1v3.6l1.2,2.1l2,1.3h2.4l1.8-1.1v1h1.4
		v-10.2h-1.4v1l-1.8-1.1H-132.3z M-120.8,379.7l-2.2,1.3v-1.2h-1.4v10.1h1.4v-6.1l1-1.8l1.6-1h1.9v-1.3H-120.8z M-115.7,383.5
		l0.8-1.5l1.4-0.8h1.6l1.4,0.8l0.8,1.5v0.9h-5.9L-115.7,383.5L-115.7,383.5z M-113.9,379.7l-2,1.3l-1.2,2.1v3.6l1.2,2.1l2,1.3h2.4
		l2-1.3l0.9-1.7h-1.6l-0.4,0.7l-1.4,0.8h-1.6l-1.4-0.8l-0.8-1.5v-0.6h7.4v-2.6l-1.2-2.1l-2-1.3
		C-111.6,379.7-113.9,379.7-113.9,379.7z M-99.2,387.9l-0.8-1.5v-2.9l0.8-1.5l1.4-0.8h1.6l1.4,0.8l0.8,1.5v2.9l-0.8,1.5l-1.4,0.8
		h-1.6L-99.2,387.9z M-98.2,379.7l-1.8,1.1v-1h-1.4v15h1.4v-5.9l1.8,1.1h2.4l2-1.3l1.2-2.1v-3.5l-1.2-2.1l-2-1.3
		C-95.8,379.7-98.2,379.7-98.2,379.7z M-87.1,379.7l-2.2,1.3v-1.2h-1.4v10.1h1.4v-6.1l1-1.8l1.6-1h1.9v-1.3H-87.1z M-82,383.5
		l0.8-1.5l1.4-0.8h1.6l1.4,0.8l0.8,1.5v0.9h-5.9v-0.9H-82z M-80.2,379.7l-2,1.3l-1.2,2.1v3.6l1.2,2.1l2,1.3h2.4l2-1.3l0.9-1.7h-1.6
		l-0.4,0.7l-1.4,0.8h-1.6l-1.4-0.8l-0.8-1.5v-0.6h7.3v-2.6L-76,381l-2-1.3C-78,379.7-80.2,379.7-80.2,379.7z M-70.5,387.9l-0.8-1.5
		v-2.9l0.8-1.5l1.4-0.8h1.6l1.4,0.8l0.8,1.5v2.9l-0.8,1.5l-1.4,0.8h-1.6L-70.5,387.9z M-69.5,379.7l-1.8,1.1v-1h-1.4v15h1.4v-5.9
		l1.8,1.1h2.4l2-1.3l1.2-2.1v-3.5l-1.2-2.1l-2-1.3C-67.1,379.7-69.5,379.7-69.5,379.7z M-60.1,387.9l-0.8-1.5v-2.9l0.8-1.5l1.4-0.8
		h1.6l1.4,0.8l0.8,1.5v2.9l-0.8,1.5l-1.4,0.8h-1.6L-60.1,387.9z M-59.2,379.7l-2,1.3l-1.2,2.1v3.6l1.2,2.1l2,1.3h2.4l1.8-1.1v1h1.4
		v-10.2H-55v1l-1.8-1.1H-59.2z M-47.6,379.7l-2.2,1.3v-1.2h-1.4v10.1h1.4v-6.1l1-1.8l1.6-1h1.9v-1.3H-47.6z M-36.6,379.7l-1.8,1.1
		v-1h-1.4v10.1h1.4v-6.4l0.8-1.5l1.4-0.8h1.6l1.4,0.8l0.8,1.5v6.5h1.4v-6.9l-1.2-2.1l-2-1.3C-34.2,379.7-36.6,379.7-36.6,379.7z
		 M-27,387.3l-0.8-1.5v-2.3l0.8-1.5l1.4-0.8h1.6l1.4,0.8l0.8,1.5v2.3l-0.8,1.5l-1.4,0.8h-1.6L-27,387.3z M-26.1,379.7l-2,1.3
		l-1.2,2.1v3l1.2,2.1l2,1.3h2.4l1.8-1.1v2.8l-0.8,1.5l-1.4,0.8h-1.6l-1.4-0.8l-0.8-1.5V390h-1.4v1.5l1.2,2.1l2,1.3h2.4l2-1.3
		l1.2-2.1v-11.7h-1.4v1l-1.8-1.1H-26.1z M-11.2,379.7l-1.4,0.8l-0.8,1.4v1.6l0.8,1.4l1.4,0.8h1.9l0.7,0.4l0.4,0.7v0.8l-0.4,0.7
		l-0.7,0.4h-1.5l-0.7-0.4l-0.4-0.7V387h-1.4v0.9l0.8,1.4l1.4,0.8h2.3l1.4-0.8l0.8-1.4v-1.6l-0.8-1.4l-1.4-0.8h-1.9l-0.7-0.4
		l-0.4-0.7v-0.8l0.4-0.7l0.7-0.4h1.5l0.7,0.4l0.4,0.7v0.6h1.4v-0.9l-0.8-1.4l-1.4-0.8H-11.2z M-2.8,387.9l-0.8-1.5v-2.9l0.8-1.5
		l1.4-0.8h1.6l1.4,0.8l0.8,1.5v2.9l-0.8,1.5l-1.4,0.8h-1.6L-2.8,387.9z M-1.8,379.7l-2,1.3l-1.2,2.1v3.6l1.2,2.1l2,1.3h2.4l2-1.3
		l1.2-2.1v-3.6L2.6,381l-2-1.3C0.6,379.7-1.8,379.7-1.8,379.7z M16.1,379.7l-2,1.3l-0.5,0.8l-0.4-0.8l-2-1.3H8.8L7,380.8v-1H5.6
		v10.1H7v-6.4l0.8-1.5l1.4-0.8h1.6l1.4,0.8l0.8,1.5v6.5h1.4v-6.5l0.8-1.5l1.4-0.8h1.6l1.4,0.8l0.8,1.5v6.5h1.4v-6.9l-1.2-2.1l-2-1.3
		C18.5,379.7,16.1,379.7,16.1,379.7z M24.9,383.5l0.8-1.5l1.4-0.8h1.6l1.4,0.8l0.8,1.5v0.9H25v-0.9H24.9z M26.6,379.7l-2,1.3
		l-1.2,2.1v3.6l1.2,2.1l2,1.3H29l2-1.3l0.9-1.7h-1.6l-0.4,0.7l-1.4,0.8h-1.6l-1.4-0.8l-0.8-1.5v-0.6H32v-2.6l-1.2-2.1l-2-1.3
		C28.8,379.7,26.6,379.7,26.6,379.7z M58.6,379.7l-1.8,1.1v-1h-1.4v10.1h1.4v-6.4l0.8-1.5l1.4-0.8h1.6L62,382l0.8,1.5v6.5h1.4v-6.9
		L63,381l-2-1.3C61,379.7,58.6,379.7,58.6,379.7z M68.1,387.3l-0.8-1.5v-2.3l0.8-1.5l1.4-0.8h1.6l1.4,0.8l0.8,1.5v2.3l-0.8,1.5
		l-1.4,0.8h-1.6L68.1,387.3z M69.1,379.7l-2,1.3l-1.2,2.1v3l1.2,2.1l2,1.3h2.4l1.8-1.1v2.8l-0.8,1.5l-1.4,0.8h-1.6l-1.4-0.8
		l-0.8-1.5V390h-1.4v1.5l1.2,2.1l2,1.3h2.4l2-1.3l1.2-2.1v-11.7h-1.4v1l-1.8-1.1H69.1z M-152.1,373.9l-3.6,13.5l-3.6-13.5h-1.4
		l-3.6,13.5l-3.6-13.5h-1.5l4.3,16h1.5l3.6-13.2l3.6,13.3h1.5l4.3-16h-1.5V373.9z M35.4,373.9v5.8h-1.8v1.3h1.8v8.9h1.4V381h1.8
		v-1.3h-1.8v-5.8H35.4z M40.5,373.9v16h1.4v-6.4l0.8-1.5l1.4-0.8h1.6L47,382l0.8,1.5v6.5h1.4v-6.9L48,381l-2-1.3h-2.5l-1.7,1.1v-6.9
		H40.5z M-43.1,373.8l-0.3,0.2l-0.2,0.3v0.4l0.2,0.3l0.3,0.2h0.4l0.3-0.2l0.2-0.3v-0.4l-0.2-0.3l-0.3-0.2H-43.1z M52.1,373.8
		l-0.3,0.2l-0.2,0.3v0.4l0.2,0.3l0.3,0.2h0.4l0.3-0.2l0.2-0.3v-0.4l-0.2-0.3l-0.3-0.2H52.1z"/>
</g>
</svg>
