<?xml version="1.0" encoding="utf-8"?>
<!-- Generator: Adobe Illustrator 22.0.0, SVG Export Plug-In . SVG Version: 6.00 Build 0)  -->
<svg version="1.1" id="Layer_1" xmlns="http://www.w3.org/2000/svg" xmlns:xlink="http://www.w3.org/1999/xlink" x="0px" y="0px"
	 viewBox="0 0 395.5 372.6" style="enable-background:new 0 0 395.5 372.6;" xml:space="preserve">
<style type="text/css">
	.st0{fill:#FFFFFF;}
</style>
<path class="st0" d="M115,291.5l-10.9,40.7l-10.9-40.7h-7.8l-10.9,40.7l-10.9-40.7h-7.9l14.6,54.6h8.3l10.7-39.9l10.7,39.9h8.3
	l14.6-54.6H115z M219,291.5l-10.9,40.7l-10.9-40.7h-7.8l15,55.8v25.3h7.6v-25.3l15-55.8H219z M11.9,334.7l-4.4-8.1V311l4.4-8.1
	l7.4-4.6h8.4l7.4,4.6l4.4,8.1v15.5l-4.4,8.1l-7.4,4.6h-8.4L11.9,334.7z M17.1,290.7l-10.9,6.8L0,309.1v19.3L6.2,340l10.9,6.8h12.7
	l9.6-5.9v5.2H47v-54.6h-7.6v5.2l-9.6-5.9H17.1z M141.3,334.7l-4.4-8.1V311l4.4-8.1l7.4-4.6h8.4l7.4,4.6l4.4,8.1v15.5l-4.4,8.1
	l-7.4,4.6h-8.4L141.3,334.7z M146.5,290.7l-10.9,6.8l-6.2,11.6v19.3l6.2,11.6l10.9,6.8h12.7l9.6-5.9v5.2h7.6v-54.6h-7.6v5.2
	l-9.6-5.9H146.5z"/>
<path class="st0" d="M2.2,216.6h7.6V162H2.2V216.6z M33.3,161.3l-7.4,4.3l-4.3,7.4v8.5l4.3,7.4l7.4,4.3h10.3l3.9,2.2l2.2,3.9v4.5
	l-2.2,3.9l-3.9,2.2h-8.3l-3.9-2.2l-2.2-3.9v-3h-7.6v5l4.3,7.4l7.4,4.3h12.3l7.4-4.3l4.3-7.4v-8.5l-4.3-7.4l-7.4-4.3H35.4l-3.9-2.2
	l-2.2-3.9V175l2.2-3.9l3.9-2.2l8.3,0l3.9,2.2l2.2,3.9v3h7.6v-5l-4.3-7.4l-7.4-4.3H33.3z M139.3,205.2l-4.4-8.1v-15.5l4.4-8.1
	l7.4-4.6h8.4l7.4,4.6l4.4,8.1v15.5l-4.4,8.1l-7.4,4.6h-8.4L139.3,205.2z M144.5,161.3l-10.9,6.8l-6.2,11.6V199l6.2,11.6l10.9,6.8
	h12.7l10.9-6.8l6.2-11.6v-19.3l-6.2-11.6l-10.9-6.8H144.5z M193.9,205.2l-4.4-8.1v-15.5l4.4-8.1l7.4-4.6h8.4l7.4,4.6l4.4,8.1v15.5
	l-4.4,8.1l-7.4,4.6h-8.4L193.9,205.2z M199.1,161.3l-10.9,6.8l-6.2,11.6V199l6.2,11.6l10.9,6.8h12.7l10.9-6.8L229,199v-19.3
	l-6.2-11.6l-10.9-6.8H199.1z M315.9,205.2l-4.4-8.1v-15.5l4.4-8.1l7.4-4.6h8.4l7.4,4.6l4.4,8.1v15.5l-4.4,8.1l-7.4,4.6h-8.4
	L315.9,205.2z M321.1,161.3l-10.9,6.8l-6.2,11.6V199l6.2,11.6l10.9,6.8h12.7l9.6-5.9v5.2h7.6V162h-7.6v5.2l-9.6-5.9H321.1z
	 M383.3,161.3l-11.8,7.3V162h-7.6v54.6h7.6v-32.8l5.2-9.5l8.8-5.4h10v-7.6H383.3z M102.8,130.2v31.1H93v7.2h9.9v48.2h7.6v-48.2h9.9
	v-7.2h-9.9v-31.1H102.8z M4.9,129.4l-1.8,1l-1,1.8v2l1,1.8l1.8,1h2l1.8-1l1-1.8v-2l-1-1.8l-1.8-1H4.9z M293.2,129.4l-10.9,6.8
	l-6.2,11.6v13.5h-9.9v7.2h9.9v48.2h7.6v-48.2h15.9v-7.2h-15.9v-11.6l4.4-8.1l7.4-4.6h4.2v-7.6H293.2z"/>
<path class="st0" d="M93.9,75.8l-4.4-8.1V52.1l4.4-8.1l7.4-4.6h8.4L117,44l4.4,8.1v15.5l-4.4,8.1l-7.4,4.6h-8.4L93.9,75.8z
	 M99.1,31.8l-10.9,6.8L82,50.2v19.3l6.2,11.6L99.1,88h12.7l9.6-5.9v5.2h7.6V32.6h-7.6v5.2l-9.6-5.9H99.1z M159.1,31.8l-9.6,5.9v-5.2
	H142v54.6h7.6V52.1l4.4-8.1l7.4-4.6h8.4L177,44l4.4,8.1v35.1h7.6v-37l-6.2-11.6l-10.9-6.8H159.1z M206.3,52.1l4.4-8.1l7.4-4.6h8.4
	l7.4,4.6l4.4,8.1v4.7h-31.8V52.1z M215.8,31.8l-10.9,6.8l-6.2,11.6v19.3l6.2,11.6l10.9,6.8h12.7l10.9-6.8l4.9-9.1h-8.6l-2,3.8
	l-7.4,4.6H218l-7.4-4.6l-4.4-8.1v-3.2h39.4V50.2l-6.2-11.6l-10.9-6.8H215.8z M63.5,87.2h7.6V0.8h-7.6V87.2z M263.1,0.8v31.1h-9.9V39
	h9.9v48.2h7.6V39h9.9v-7.2h-9.9V0.8H263.1z M9.7,7.6h21.5l9.5,5.2l5.4,8.8v10l-5.4,8.8l-9.5,5.2H9.7V7.6z M2.2,0v87.2h7.6V53.1h23.4
	l13-7l7.6-12.3V19.4L46.1,7l-13-7H2.2z M324.9,47h21.5l9.5,4.6l5.4,7.9v9l-5.4,7.9l-9.5,4.6h-21.5V47z M324.9,6.7h21.5l9.5,4.6
	l5.4,7.8V28l-5.4,7.8l-9.3,4.5h-21.7V6.7z M317.3,0v88h31l13-6.3l7.6-11.1V57.6l-7.6-11.1l-5.9-2.9l5.9-2.8l7.6-10.9V17.2l-7.6-10.9
	l-13-6.2H317.3z"/>
</svg>
