<?xml version="1.0" encoding="utf-8"?>
<!-- Generator: Adobe Illustrator 19.0.0, SVG Export Plug-In . SVG Version: 6.00 Build 0)  -->
<svg version="1.1" id="Layer_1" xmlns="http://www.w3.org/2000/svg" xmlns:xlink="http://www.w3.org/1999/xlink" x="0px" y="0px"
	 width="315.1px" height="295.2px" viewBox="0 0 315.1 295.2" style="enable-background:new 0 0 315.1 295.2;" xml:space="preserve"
	>
<style type="text/css">
	.st0{fill:#FFFFFF;}
</style>
<g id="XMLID_29_">
	<g id="XMLID_49_">
		<path id="XMLID_50_" class="st0" d="M55.8,19v11L50,39.6L40,45H22v26.3h-5.8V4.1H40l10,5.4L55.8,19z M50,20.7l-4.2-6.8l-7.3-4H22
			v29.2h16.5l7.3-4l4.2-6.8V20.7z"/>
		<path id="XMLID_53_" class="st0" d="M63.5,71.3V4.7h5.8v66.6H63.5z"/>
		<path id="XMLID_55_" class="st0" d="M113.9,29.2v42h-5.8v-4l-7.4,4.6h-9.8l-8.4-5.2l-4.8-8.9V42.8l4.8-8.9l8.4-5.2h9.8l7.4,4.6v-4
			H113.9z M108.1,44.3l-3.4-6.3L99,34.5h-6.5L86.9,38l-3.4,6.3v12l3.4,6.3l5.7,3.5H99l5.7-3.5l3.4-6.3V44.3z"/>
		<path id="XMLID_58_" class="st0" d="M160.2,42.8v28.5h-5.8v-27L151,38l-5.7-3.5h-6.5l-5.7,3.5l-3.4,6.3v27H124v-42h5.8v4l7.4-4.6
			h9.8l8.4,5.2L160.2,42.8z"/>
		<path id="XMLID_60_" class="st0" d="M173.5,53.8v2.5l3.4,6.3l5.7,3.5h6.5l5.7-3.5l1.6-2.9h6.6l-3.8,7l-8.4,5.2h-9.8l-8.4-5.2
			l-4.8-8.9V42.8l4.8-8.9l8.4-5.2h9.8l8.4,5.2l4.8,8.9v11H173.5z M173.5,47.9H198v-3.6l-3.4-6.3l-5.7-3.5h-6.5l-5.7,3.5l-3.4,6.3
			V47.9z"/>
		<path id="XMLID_63_" class="st0" d="M230.7,34.2h-7.6v37.1h-5.8V34.2h-7.6v-5.5h7.6V4.7h5.8v23.9h7.6V34.2z"/>
		<path id="XMLID_65_" class="st0" d="M293.1,35.5l-4.6,2.2l4.6,2.2l5.9,8.6v9.9l-5.9,8.6l-10,4.9h-23.9V4.1h23.9l10,4.8l5.9,8.4
			v9.8L293.1,35.5z M288.9,31.6l4.2-6v-6.9l-4.2-6l-7.3-3.5h-16.5v25.8h16.7L288.9,31.6z M288.9,43.9l-7.3-3.6h-16.5v26.3h16.5
			l7.3-3.6l4.2-6.1v-7L288.9,43.9z"/>
	</g>
	<g id="XMLID_25_">
		<path id="XMLID_26_" class="st0" d="M11.7,106v1.6l-0.8,1.4l-1.4,0.8H8l-1.4-0.8l-0.8-1.4V106l0.8-1.4l1.4-0.8h1.6l1.4,0.8
			L11.7,106z M5.8,171v-42h5.8v42H5.8z"/>
		<path id="XMLID_32_" class="st0" d="M42.5,141.2v-2.3l-1.7-3l-3-1.7l-6.4,0l-3,1.7l-1.7,3v3.4l1.7,3l3,1.7h7.9l5.7,3.3l3.3,5.7
			v6.6l-3.3,5.7l-5.7,3.3h-9.5l-5.7-3.3l-3.3-5.7v-3.9h5.8v2.3l1.7,3l3,1.7h6.4l3-1.7l1.7-3v-3.4l-1.7-3l-3-1.7h-7.9l-5.7-3.3
			l-3.3-5.7v-6.6l3.3-5.7l5.7-3.3h9.5l5.7,3.3l3.3,5.7v3.9H42.5z"/>
		<path id="XMLID_34_" class="st0" d="M97,133.9h-7.6V171h-5.8v-37.1H76v-5.5h7.6v-23.9h5.8v23.9H97V133.9z"/>
		<path id="XMLID_36_" class="st0" d="M125.5,171.6h-9.8l-8.4-5.2l-4.8-8.9v-14.9l4.8-8.9l8.4-5.2h9.8l8.4,5.2l4.8,8.9v14.9
			l-4.8,8.9L125.5,171.6z M117.3,165.7h6.5l5.7-3.5l3.4-6.3v-12l-3.4-6.3l-5.7-3.5h-6.5l-5.7,3.5l-3.4,6.3v12l3.4,6.3L117.3,165.7z"
			/>
		<path id="XMLID_39_" class="st0" d="M167.5,171.6h-9.8l-8.4-5.2l-4.8-8.9v-14.9l4.8-8.9l8.4-5.2h9.8l8.4,5.2l4.8,8.9v14.9
			l-4.8,8.9L167.5,171.6z M159.4,165.7h6.5l5.7-3.5l3.4-6.3v-12l-3.4-6.3l-5.7-3.5h-6.5l-5.7,3.5l-3.4,6.3v12l3.4,6.3L159.4,165.7z"
			/>
		<path id="XMLID_42_" class="st0" d="M222.9,119.4v8.9h12.3v5.5h-12.3V171h-5.8v-37.1h-7.6v-5.5h7.6V118l4.8-8.9l8.4-5.2h4.9v5.8
			h-3.2l-5.7,3.5L222.9,119.4z"/>
		<path id="XMLID_44_" class="st0" d="M274.8,128.9v42H269v-4l-7.4,4.6h-9.8l-8.4-5.2l-4.8-8.9v-14.9l4.8-8.9l8.4-5.2h9.8l7.4,4.6
			v-4H274.8z M269,144l-3.4-6.3l-5.7-3.5h-6.5l-5.7,3.5l-3.4,6.3v12l3.4,6.3l5.7,3.5h6.5l5.7-3.5l3.4-6.3V144z"/>
		<path id="XMLID_47_" class="st0" d="M309.2,128.3v5.8h-7.7l-6.8,4.2l-4,7.3V171h-5.8v-42h5.8v5l9.1-5.6H309.2z"/>
	</g>
	<g id="XMLID_14_">
		<path id="XMLID_15_" class="st0" d="M106.3,228.6v42h-5.8v-4l-7.4,4.6h-9.8l-8.4-5.2l-4.8-8.9v-14.9l4.8-8.9l8.4-5.2h9.8l7.4,4.6
			v-4H106.3z M100.5,243.7l-3.4-6.3l-5.7-3.5H85l-5.7,3.5l-3.4,6.3v12l3.4,6.3l5.7,3.5h6.5l5.7-3.5l3.4-6.3V243.7z"/>
		<path id="XMLID_18_" class="st0" d="M164.8,228.6l-11.3,42h-6.4l-8.2-30.8l-8.2,30.8h-6.4l-11.3-42h6l8.4,31.4l8.4-31.4h6
			l8.4,31.4l8.4-31.4H164.8z"/>
		<path id="XMLID_20_" class="st0" d="M206,228.6v42h-5.8v-4l-7.4,4.6H183l-8.4-5.2l-4.8-8.9v-14.9l4.8-8.9l8.4-5.2h9.8l7.4,4.6v-4
			H206z M200.2,243.7l-3.4-6.3l-5.7-3.5h-6.5l-5.7,3.5l-3.4,6.3v12l3.4,6.3l5.7,3.5h6.5l5.7-3.5l3.4-6.3V243.7z"/>
		<path id="XMLID_23_" class="st0" d="M244.9,228.6l-11.5,43v19.5h-5.8v-19.5l-11.5-43h6l8.4,31.4l8.4-31.4H244.9z"/>
	</g>
</g>
</svg>
