<?xml version="1.0" encoding="utf-8"?>
<!-- Generator: Adobe Illustrator 19.0.0, SVG Export Plug-In . SVG Version: 6.00 Build 0)  -->
<svg version="1.1" id="Layer_1" xmlns="http://www.w3.org/2000/svg" xmlns:xlink="http://www.w3.org/1999/xlink" x="0px" y="0px"
	 width="225.8px" height="51.1px" viewBox="0 0 225.8 51.1" style="enable-background:new 0 0 225.8 51.1;" xml:space="preserve">
<style type="text/css">
	.st0{fill:#FFFFFF;}
</style>
<path class="st0" d="M201.9,41.2l-2.4-4.4V14.3l2.4-4.4l4-2.5h4.5l4,2.5l2.4,4.4v22.4l-2.4,4.4l-4,2.5h-4.5L201.9,41.2z M218.7,45.2
	l3.8-7V12.9l-3.8-7L212,1.7h-7.8l-6.7,4.1l-3.8,7v25.3l3.8,7l6.7,4.1h7.8L218.7,45.2z M190.1,43.5h-17.7V2.1h-5.8V49h23.5V43.5z
	 M159.6,27.7v-5.4h-17.7V7.5h17.7V2.1h-23.5V49h23.5v-5.4h-17.7V27.7H159.6z M129.6,16.9v-5.5l-3.9-6.2L119,1.7h-7.6l-6.7,3.5
	l-3.9,6.2v7.3l3.9,6.2l6.7,3.5h6.2l4,2.1l2.2,3.5V38l-2.2,3.5l-4,2.1h-4.8l-4-2.1l-2.2-3.5v-3.9h-5.8v5.5l3.9,6.2l6.7,3.5h7.6
	l6.7-3.5l3.9-6.2v-7.3l-3.9-6.2l-6.7-3.5h-6.2l-4-2.1l-2.2-3.5v-3.9l2.2-3.5l4-2.1h4.8l4,2.1l2.2,3.5v3.9H129.6z M94.9,16.9v-5.5
	L91,5.2l-6.7-3.5h-7.6l-6.7,3.5l-3.9,6.2v7.3l3.9,6.2l6.7,3.5h6.2l4,2.1l2.2,3.5V38l-2.2,3.5l-4,2.1h-4.8l-4-2.1L71.9,38v-3.9h-5.8
	v5.5l3.9,6.2l6.7,3.5h7.6l6.7-3.5l3.9-6.2v-7.3L91,26.2l-6.7-3.5h-6.2l-4-2.1L71.9,17v-3.9l2.2-3.5l4-2.1h4.8l4,2.1l2.2,3.5v3.9
	H94.9z M59.7,27.7v-5.4H41.9V7.5h17.7V2.1H36.2V49h23.5v-5.4H41.9V27.7H59.7z M32,2.1H3.2v5.4h11.5V49h5.8V7.5H32V2.1z"/>
</svg>
