<?xml version="1.0" encoding="utf-8"?>
<!-- Generator: Adobe Illustrator 19.0.0, SVG Export Plug-In . SVG Version: 6.00 Build 0)  -->
<svg version="1.1" xmlns="http://www.w3.org/2000/svg" xmlns:xlink="http://www.w3.org/1999/xlink" x="0px" y="0px" width="315.1px"
	 height="295.2px" viewBox="0 0 315.1 295.2" style="enable-background:new 0 0 315.1 295.2;" xml:space="preserve">
<style type="text/css">
	.st0{fill:#FFFFFF;}
</style>
<g id="Layer_1">
	<g id="XMLID_14_">
		<g id="XMLID_105_">
			<path id="XMLID_106_" class="st0" d="M96.6,7.8L78.7,74.6h-6.4L57.5,19.1L42.6,74.6h-6.4L18.4,7.8h6.1l15,56l15-56h6.1l15,56
				l15-56H96.6z"/>
			<path id="XMLID_108_" class="st0" d="M101.7,57v2.5l3.4,6.3l5.7,3.5h6.5l5.7-3.5l1.6-2.9h6.6l-3.8,7.1l-8.4,5.2h-9.8l-8.4-5.2
				L95.9,61V46l4.8-8.9l8.4-5.2h9.8l8.4,5.2l4.8,8.9v11H101.7z M101.7,51.2h24.6v-3.7l-3.4-6.3l-5.7-3.5h-6.5l-5.7,3.5l-3.4,6.3
				V51.2z"/>
			<path id="XMLID_111_" class="st0" d="M180,37.4h-7.6v37.2h-5.9V37.4H159v-5.5h7.6v-24h5.9v24h7.6V37.4z"/>
			<path id="XMLID_113_" class="st0" d="M222.4,32.4v42.2h-5.9v-4l-7.4,4.6h-9.8l-8.4-5.2L186,61V46l4.8-8.9l8.4-5.2h9.8l7.4,4.6v-4
				H222.4z M216.5,47.5l-3.4-6.3l-5.7-3.5h-6.5l-5.7,3.5l-3.4,6.3v12l3.4,6.3l5.7,3.5h6.5l5.7-3.5l3.4-6.3V47.5z"/>
			<path id="XMLID_116_" class="st0" d="M241.8,54.1l14.4,20.5H249l-10.8-15.4v15.4h-5.9V7.8h5.9V49l11.6-16.6h7.2L241.8,54.1z"/>
			<path id="XMLID_118_" class="st0" d="M266.2,57v2.5l3.4,6.3l5.7,3.5h6.5l5.7-3.5l1.6-2.9h6.6l-3.8,7.1l-8.4,5.2h-9.8l-8.4-5.2
				l-4.8-8.9V46l4.8-8.9l8.4-5.2h9.8l8.4,5.2l4.8,8.9v11H266.2z M266.2,51.2h24.6v-3.7l-3.4-6.3l-5.7-3.5h-6.5l-5.7,3.5l-3.4,6.3
				V51.2z"/>
		</g>
		<g id="XMLID_89_">
			<path id="XMLID_90_" class="st0" d="M62.2,146.4v-1.9l-3.4-6.3l-5.7-3.5h-6.5l-5.7,3.5l-3.4,6.3v12l3.4,6.3l5.7,3.5h6.5l5.7-3.5
				l3.4-6.3v-1.9H68v3.4l-4.8,8.9l-8.4,5.3H45l-8.4-5.3l-4.8-8.9V143l4.8-8.9l8.4-5.2h9.8l8.4,5.2L68,143v3.4H62.2z"/>
			<path id="XMLID_92_" class="st0" d="M109.4,129.4v42.2h-5.9v-4l-7.4,4.6h-9.8l-8.4-5.3l-4.8-8.9V143l4.8-8.9l8.4-5.2h9.8l7.4,4.6
				v-4H109.4z M103.5,144.5l-3.4-6.3l-5.7-3.5H88l-5.7,3.5l-3.4,6.3v12l3.4,6.3l5.7,3.5h6.5l5.7-3.5l3.4-6.3V144.5z"/>
			<path id="XMLID_95_" class="st0" d="M143.9,128.8v5.9h-7.8l-6.8,4.2l-4,7.4v25.4h-5.9v-42.2h5.9v5l9.1-5.6H143.9z"/>
			<path id="XMLID_97_" class="st0" d="M155.6,154v2.5l3.4,6.3l5.7,3.5h6.5l5.7-3.5l1.6-2.9h6.6l-3.8,7.1l-8.4,5.3H163l-8.4-5.3
				l-4.8-8.9V143l4.8-8.9l8.4-5.2h9.8l8.4,5.2l4.8,8.9v11H155.6z M155.6,148.2h24.6v-3.7l-3.4-6.3l-5.7-3.5h-6.5l-5.7,3.5l-3.4,6.3
				V148.2z"/>
			<path id="XMLID_100_" class="st0" d="M236.4,172.2h-9.8l-8.4-5.3l-4.8-8.9V143l4.8-8.9l8.4-5.2h9.8l8.4,5.2l4.8,8.9V158l-4.8,8.9
				L236.4,172.2z M228.2,166.3h6.5l5.7-3.5l3.4-6.3v-12l-3.4-6.3l-5.7-3.5h-6.5l-5.7,3.5l-3.4,6.3v12l3.4,6.3L228.2,166.3z"/>
			<path id="XMLID_103_" class="st0" d="M271,119.9v8.9h12.3v5.5H271v37.2h-5.9v-37.2h-7.6v-5.5h7.6v-10.4l4.8-8.9l8.4-5.3h4.9v5.9
				h-3.2l-5.7,3.5L271,119.9z"/>
		</g>
		<g id="XMLID_70_">
			<path id="XMLID_71_" class="st0" d="M56.4,219.2v11.1l-5.9,9.5l-10,5.4H22.5v26.4h-5.9v-67.4h23.9l10,5.4L56.4,219.2z
				 M50.6,220.9l-4.2-6.8l-7.4-4H22.5v29.3h16.6l7.4-4l4.2-6.8V220.9z"/>
			<path id="XMLID_74_" class="st0" d="M64.1,271.6v-66.8H70v66.8H64.1z"/>
			<path id="XMLID_76_" class="st0" d="M114.7,229.4v42.2h-5.9v-4l-7.4,4.6h-9.8l-8.4-5.3l-4.8-8.9V243l4.8-8.9l8.4-5.2h9.8l7.4,4.6
				v-4H114.7z M108.8,244.5l-3.4-6.3l-5.7-3.5h-6.5l-5.7,3.5l-3.4,6.3v12l3.4,6.3l5.7,3.5h6.5l5.7-3.5l3.4-6.3V244.5z"/>
			<path id="XMLID_79_" class="st0" d="M161.1,243v28.6h-5.9v-27.1l-3.4-6.3l-5.7-3.5h-6.5l-5.7,3.5l-3.4,6.3v27.1h-5.9v-42.2h5.9v4
				l7.4-4.6h9.8l8.4,5.2L161.1,243z"/>
			<path id="XMLID_81_" class="st0" d="M174.5,254v2.5l3.4,6.3l5.7,3.5h6.5l5.7-3.5l1.6-2.9h6.6l-3.8,7.1l-8.4,5.3h-9.8l-8.4-5.3
				l-4.8-8.9V243l4.8-8.9l8.4-5.2h9.8l8.4,5.2l4.8,8.9v11H174.5z M174.5,248.2h24.6v-3.7l-3.4-6.3l-5.7-3.5h-6.5l-5.7,3.5l-3.4,6.3
				V248.2z"/>
			<path id="XMLID_84_" class="st0" d="M231.9,234.4h-7.6v37.2h-5.9v-37.2h-7.6v-5.5h7.6v-24h5.9v24h7.6V234.4z"/>
			<path id="XMLID_86_" class="st0" d="M287.5,253.4h-20.3l-4.9,18.2h-6.1l17.9-66.8h6.4l17.9,66.8h-6.1L287.5,253.4z M285.9,247.6
				l-8.6-32l-8.6,32H285.9z"/>
		</g>
	</g>
</g>
<g id="Layer_2">
</g>
</svg>
