<?xml version="1.0" encoding="utf-8"?>
<!-- Generator: Adobe Illustrator 22.0.0, SVG Export Plug-In . SVG Version: 6.00 Build 0)  -->
<svg version="1.1" id="Layer_1" xmlns="http://www.w3.org/2000/svg" xmlns:xlink="http://www.w3.org/1999/xlink" x="0px" y="0px"
	 viewBox="0 0 369.8 346.1" style="enable-background:new 0 0 369.8 346.1;" xml:space="preserve">
<style type="text/css">
	.st0{fill:#FFFFFF;}
</style>
<path class="st0" d="M97.1,333.9l-4.4-8.1v-15.5l4.4-8.1l7.4-4.6h8.4l7.4,4.6l4.4,8.1v15.5l-4.4,8.1l-7.4,4.6h-8.4L97.1,333.9z
	 M102.4,290l-10.9,6.8l-6.2,11.6v19.3l6.2,11.6l10.9,6.8h12.7l9.6-5.9v5.2h7.6v-54.6h-7.6v5.2l-9.6-5.9H102.4z M162.3,290l-9.6,5.9
	v-5.2h-7.6v54.6h7.6v-35.1l4.4-8.1l7.4-4.6h8.4l7.4,4.6l4.4,8.1v35.1h7.6v-37l-6.2-11.6l-10.9-6.8H162.3z M209.5,310.3l4.4-8.1
	l7.4-4.6h8.4l7.4,4.6l4.4,8.1v4.7h-31.8V310.3z M219.1,290l-10.9,6.8l-6.2,11.6v19.3l6.2,11.6l10.9,6.8h12.7l10.9-6.8l4.9-9.1H239
	l-2,3.8l-7.4,4.6h-8.4l-7.4-4.6l-4.4-8.1v-3.2h39.4v-14.2l-6.2-11.6l-10.9-6.8H219.1z M66.8,345.3h7.6v-86.4h-7.6V345.3z
	 M266.4,258.9V290h-9.9v7.2h9.9v48.2h7.6v-48.2h9.9V290h-9.9v-31.1H266.4z M342.5,272.8l11.1,41.5h-22.2L342.5,272.8z M338.3,258.9
	l-23.2,86.4h7.8l6.3-23.5h26.3l6.3,23.5h7.9l-23.2-86.4H338.3z M13,265.7h21.5l9.5,5.2l5.4,8.8v10l-5.4,8.8l-9.5,5.2H13V265.7z
	 M5.4,258.1v87.2H13v-34.1h23.4l13-7l7.6-12.3v-14.3l-7.6-12.3l-13-7H5.4z"/>
<path class="st0" d="M319.2,140.8l7.4-4.6h4.2v-7.6h-6.4l-10.9,6.8l-6.2,11.6v13.5h-9.9v7.2h9.9v48.2h7.6v-48.2h15.9v-7.2h-15.9V149
	L319.2,140.8z M252,204.5l-4.4-8.1v-15.5l4.4-8.1l7.4-4.6h8.4l7.4,4.6l4.4,8.1v15.5l-4.4,8.1l-7.4,4.6h-8.4L252,204.5z M280.9,209.8
	l6.2-11.6v-19.3l-6.2-11.6l-10.9-6.8h-12.7l-10.9,6.8l-6.2,11.6v19.3l6.2,11.6l10.9,6.8H270L280.9,209.8z M165.6,180.8l4.4-8.1
	l7.4-4.6h8.4l7.4,4.6l4.4,8.1v4.7h-31.8V180.8z M205,193.1v-14.2l-6.2-11.6l-10.9-6.8h-12.7l-10.9,6.8l-6.2,11.6v19.3l6.2,11.6
	l10.9,6.8h12.7l10.9-6.8l4.9-9.1h-8.6l-2,3.8l-7.4,4.6h-8.4l-7.4-4.6l-4.4-8.1v-3.2H205z M138.2,160.5l-11.8,7.3v-6.5h-7.6v54.6h7.6
	V183l5.2-9.5l8.8-5.4h10v-7.6H138.2z M98.3,196.4l-4.4,8.1l-7.4,4.6h-8.4l-7.4-4.6l-4.4-8.1v-15.5l4.4-8.1l7.4-4.6h8.4l7.4,4.6
	l4.4,8.1V196.4z M98.3,161.3v5.2l-9.6-5.9H76l-10.9,6.8l-6.2,11.6v19.3l6.2,11.6l10.9,6.8h12.7l9.6-5.9v5.2h7.6v-54.6H98.3z
	 M52.4,183.3v-4.4l-6.2-11.6l-10.9-6.8H22.5l-10.9,6.8l-6.2,11.6v19.3l6.2,11.6l10.9,6.8h12.7l10.9-6.8l6.2-11.6v-4.4h-7.6v2.5
	l-4.4,8.1l-7.4,4.6h-8.4l-7.4-4.6l-4.4-8.1v-15.5l4.4-8.1l7.4-4.6h8.4l7.4,4.6l4.4,8.1v2.5H52.4z"/>
<path class="st0" d="M107.9,51.4l4.4-8.1l7.4-4.6h8.4l7.4,4.6l4.4,8.1v4.7h-31.8V51.4z M117.5,31.1l-10.9,6.8l-6.2,11.6v19.3
	l6.2,11.6l10.9,6.8h12.7l10.9-6.8l4.9-9.1h-8.6l-2,3.8l-7.4,4.6h-8.4l-7.4-4.6l-4.4-8.1v-3.2h39.4V49.5l-6.2-11.6l-10.9-6.8H117.5z
	 M228.7,75l-4.4-8.1V51.4l4.4-8.1l7.4-4.6h8.4l7.4,4.6l4.4,8.1v15.5l-4.4,8.1l-7.4,4.6h-8.4L228.7,75z M233.9,31.1L223,37.9
	l-6.2,11.6v19.3l6.2,11.6l10.9,6.8h12.7l9.6-5.9v5.2h7.6V31.8h-7.6V37l-9.6-5.9H233.9z M320.5,51.4l4.4-8.1l7.4-4.6h8.4l7.4,4.6
	l4.4,8.1v4.7h-31.8V51.4z M330.1,31.1l-10.9,6.8l-6.2,11.6v19.3l6.2,11.6l10.9,6.8h12.7l10.9-6.8l4.9-9.1H350l-2,3.8l-7.4,4.6h-8.4
	l-7.4-4.6l-4.4-8.1v-3.2h39.4V49.5l-6.2-11.6l-10.9-6.8H330.1z M93.5,0L74,72.5L54.6,0h-7.8L27.3,72.5L7.8,0H0l23.2,86.4h8.3
	l19.2-71.8l19.2,71.8h8.3L101.3,0H93.5z M191.7,0v31.1h-9.9v7.2h9.9v48.2h7.6V38.2h9.9v-7.2h-9.9V0H191.7z M276.8,0v86.4h7.6V66.5
	l14,19.9h9.3L289,59.9l19.6-28.1h-9.3l-15,21.4V0H276.8z"/>
</svg>
